STARTFONT 2.1
COMMENT Copyright (C) 2022 by Andrew G. Crowell. Creative Commons Attribution 4.0 International License (CC BY 4.0).
COMMENT om_small_vshadow_outline.bdf
FONT -eggboycolor-omelette_small_vshadow_outline-medium-r-normal--4-100-72-72-m-90-ISO8859-1
SIZE 4 72 72
FONTBOUNDINGBOX 4 8 0 -2
STARTPROPERTIES 13
FONT_ASCENT 6 
FONT_DESCENT 2
PIXEL_SIZE 8
POINT_SIZE 100
RESOLUTION_X 72
RESOLUTION_Y 72
SPACING "C"
DEFAULT_CHAR 32
AVERAGE_WIDTH 90
CHARSET_REGISTRY "ISO8859"
CHARSET_ENCODING "1"
FOUNDRY "eggboycolor"
COPYRIGHT "Copyright (C) 2022 by Andrew G. Crowell. Creative Commons Attribution 4.0 International License (CC BY 4.0)."
ENDPROPERTIES
CHARS 96
STARTCHAR char32
ENCODING 32
SWIDTH 400 0
DWIDTH 4 0
BBX 4 8 0 -2
BITMAP
00
00
00
00
00
00
00
00
ENDCHAR
STARTCHAR char33
ENCODING 33
SWIDTH 400 0
DWIDTH 4 0
BBX 4 8 0 -2
BITMAP
00
00
00
20
40
00
40
00
ENDCHAR
STARTCHAR char34
ENCODING 34
SWIDTH 400 0
DWIDTH 4 0
BBX 4 8 0 -2
BITMAP
00
00
00
A0
00
00
00
00
ENDCHAR
STARTCHAR char35
ENCODING 35
SWIDTH 400 0
DWIDTH 4 0
BBX 4 8 0 -2
BITMAP
00
00
00
40
00
40
A0
00
ENDCHAR
STARTCHAR char36
ENCODING 36
SWIDTH 400 0
DWIDTH 4 0
BBX 4 8 0 -2
BITMAP
00
00
60
80
40
20
80
40
ENDCHAR
STARTCHAR char37
ENCODING 37
SWIDTH 400 0
DWIDTH 4 0
BBX 4 8 0 -2
BITMAP
00
00
80
20
40
80
20
00
ENDCHAR
STARTCHAR char38
ENCODING 38
SWIDTH 400 0
DWIDTH 4 0
BBX 4 8 0 -2
BITMAP
00
00
00
20
40
20
C0
20
ENDCHAR
STARTCHAR char39
ENCODING 39
SWIDTH 400 0
DWIDTH 4 0
BBX 4 8 0 -2
BITMAP
00
00
00
40
00
00
00
00
ENDCHAR
STARTCHAR char40
ENCODING 40
SWIDTH 400 0
DWIDTH 4 0
BBX 4 8 0 -2
BITMAP
00
00
20
00
00
40
20
00
ENDCHAR
STARTCHAR char41
ENCODING 41
SWIDTH 400 0
DWIDTH 4 0
BBX 4 8 0 -2
BITMAP
00
00
40
00
00
20
40
00
ENDCHAR
STARTCHAR char42
ENCODING 42
SWIDTH 400 0
DWIDTH 4 0
BBX 4 8 0 -2
BITMAP
00
00
A0
40
A0
00
00
00
ENDCHAR
STARTCHAR char43
ENCODING 43
SWIDTH 400 0
DWIDTH 4 0
BBX 4 8 0 -2
BITMAP
00
00
00
00
A0
40
00
00
ENDCHAR
STARTCHAR char44
ENCODING 44
SWIDTH 400 0
DWIDTH 4 0
BBX 4 8 0 -2
BITMAP
00
00
00
00
00
40
80
00
ENDCHAR
STARTCHAR char45
ENCODING 45
SWIDTH 400 0
DWIDTH 4 0
BBX 4 8 0 -2
BITMAP
00
00
00
00
E0
00
00
00
ENDCHAR
STARTCHAR char46
ENCODING 46
SWIDTH 400 0
DWIDTH 4 0
BBX 4 8 0 -2
BITMAP
00
00
00
00
00
00
40
00
ENDCHAR
STARTCHAR char47
ENCODING 47
SWIDTH 400 0
DWIDTH 4 0
BBX 4 8 0 -2
BITMAP
00
00
20
00
40
00
80
00
ENDCHAR
STARTCHAR char48
ENCODING 48
SWIDTH 400 0
DWIDTH 4 0
BBX 4 8 0 -2
BITMAP
00
00
40
00
00
A0
40
00
ENDCHAR
STARTCHAR char49
ENCODING 49
SWIDTH 400 0
DWIDTH 4 0
BBX 4 8 0 -2
BITMAP
00
00
00
80
00
00
E0
00
ENDCHAR
STARTCHAR char50
ENCODING 50
SWIDTH 400 0
DWIDTH 4 0
BBX 4 8 0 -2
BITMAP
00
00
C0
20
40
00
E0
00
ENDCHAR
STARTCHAR char51
ENCODING 51
SWIDTH 400 0
DWIDTH 4 0
BBX 4 8 0 -2
BITMAP
00
00
C0
20
40
20
C0
00
ENDCHAR
STARTCHAR char52
ENCODING 52
SWIDTH 400 0
DWIDTH 4 0
BBX 4 8 0 -2
BITMAP
00
00
00
00
C0
00
20
00
ENDCHAR
STARTCHAR char53
ENCODING 53
SWIDTH 400 0
DWIDTH 4 0
BBX 4 8 0 -2
BITMAP
00
00
60
00
C0
00
E0
00
ENDCHAR
STARTCHAR char54
ENCODING 54
SWIDTH 400 0
DWIDTH 4 0
BBX 4 8 0 -2
BITMAP
00
00
60
00
40
00
E0
00
ENDCHAR
STARTCHAR char55
ENCODING 55
SWIDTH 400 0
DWIDTH 4 0
BBX 4 8 0 -2
BITMAP
00
00
C0
20
40
00
80
00
ENDCHAR
STARTCHAR char56
ENCODING 56
SWIDTH 400 0
DWIDTH 4 0
BBX 4 8 0 -2
BITMAP
00
00
40
00
40
00
E0
00
ENDCHAR
STARTCHAR char57
ENCODING 57
SWIDTH 400 0
DWIDTH 4 0
BBX 4 8 0 -2
BITMAP
00
00
40
00
C0
20
C0
00
ENDCHAR
STARTCHAR char58
ENCODING 58
SWIDTH 400 0
DWIDTH 4 0
BBX 4 8 0 -2
BITMAP
00
00
00
40
00
00
40
00
ENDCHAR
STARTCHAR char59
ENCODING 59
SWIDTH 400 0
DWIDTH 4 0
BBX 4 8 0 -2
BITMAP
00
00
00
20
00
00
20
40
ENDCHAR
STARTCHAR char60
ENCODING 60
SWIDTH 400 0
DWIDTH 4 0
BBX 4 8 0 -2
BITMAP
00
00
20
40
80
40
20
00
ENDCHAR
STARTCHAR char61
ENCODING 61
SWIDTH 400 0
DWIDTH 4 0
BBX 4 8 0 -2
BITMAP
00
00
00
E0
00
E0
00
00
ENDCHAR
STARTCHAR char62
ENCODING 62
SWIDTH 400 0
DWIDTH 4 0
BBX 4 8 0 -2
BITMAP
00
00
80
40
20
40
80
00
ENDCHAR
STARTCHAR char63
ENCODING 63
SWIDTH 400 0
DWIDTH 4 0
BBX 4 8 0 -2
BITMAP
00
40
80
20
40
00
40
00
ENDCHAR
STARTCHAR char64
ENCODING 64
SWIDTH 400 0
DWIDTH 4 0
BBX 4 8 0 -2
BITMAP
00
00
40
00
20
80
60
00
ENDCHAR
STARTCHAR char65
ENCODING 65
SWIDTH 400 0
DWIDTH 4 0
BBX 4 8 0 -2
BITMAP
00
00
40
00
40
00
A0
00
ENDCHAR
STARTCHAR char66
ENCODING 66
SWIDTH 400 0
DWIDTH 4 0
BBX 4 8 0 -2
BITMAP
00
00
40
20
40
20
C0
00
ENDCHAR
STARTCHAR char67
ENCODING 67
SWIDTH 400 0
DWIDTH 4 0
BBX 4 8 0 -2
BITMAP
00
00
60
00
00
80
60
00
ENDCHAR
STARTCHAR char68
ENCODING 68
SWIDTH 400 0
DWIDTH 4 0
BBX 4 8 0 -2
BITMAP
00
00
40
00
00
20
C0
00
ENDCHAR
STARTCHAR char69
ENCODING 69
SWIDTH 400 0
DWIDTH 4 0
BBX 4 8 0 -2
BITMAP
00
00
60
00
60
00
E0
00
ENDCHAR
STARTCHAR char70
ENCODING 70
SWIDTH 400 0
DWIDTH 4 0
BBX 4 8 0 -2
BITMAP
00
00
60
00
60
00
80
00
ENDCHAR
STARTCHAR char71
ENCODING 71
SWIDTH 400 0
DWIDTH 4 0
BBX 4 8 0 -2
BITMAP
00
00
60
00
00
80
60
00
ENDCHAR
STARTCHAR char72
ENCODING 72
SWIDTH 400 0
DWIDTH 4 0
BBX 4 8 0 -2
BITMAP
00
00
00
00
40
00
A0
00
ENDCHAR
STARTCHAR char73
ENCODING 73
SWIDTH 400 0
DWIDTH 4 0
BBX 4 8 0 -2
BITMAP
00
00
A0
00
00
00
E0
00
ENDCHAR
STARTCHAR char74
ENCODING 74
SWIDTH 400 0
DWIDTH 4 0
BBX 4 8 0 -2
BITMAP
00
00
40
00
00
20
C0
00
ENDCHAR
STARTCHAR char75
ENCODING 75
SWIDTH 400 0
DWIDTH 4 0
BBX 4 8 0 -2
BITMAP
00
00
00
20
40
00
A0
00
ENDCHAR
STARTCHAR char76
ENCODING 76
SWIDTH 400 0
DWIDTH 4 0
BBX 4 8 0 -2
BITMAP
00
00
00
00
00
00
E0
00
ENDCHAR
STARTCHAR char77
ENCODING 77
SWIDTH 400 0
DWIDTH 4 0
BBX 4 8 0 -2
BITMAP
00
00
00
00
40
00
A0
00
ENDCHAR
STARTCHAR char78
ENCODING 78
SWIDTH 400 0
DWIDTH 4 0
BBX 4 8 0 -2
BITMAP
00
00
40
00
00
00
A0
00
ENDCHAR
STARTCHAR char79
ENCODING 79
SWIDTH 400 0
DWIDTH 4 0
BBX 4 8 0 -2
BITMAP
00
00
40
00
00
20
C0
00
ENDCHAR
STARTCHAR char80
ENCODING 80
SWIDTH 400 0
DWIDTH 4 0
BBX 4 8 0 -2
BITMAP
00
00
40
20
40
00
80
00
ENDCHAR
STARTCHAR char81
ENCODING 81
SWIDTH 400 0
DWIDTH 4 0
BBX 4 8 0 -2
BITMAP
00
00
40
00
20
80
60
00
ENDCHAR
STARTCHAR char82
ENCODING 82
SWIDTH 400 0
DWIDTH 4 0
BBX 4 8 0 -2
BITMAP
00
00
40
20
40
00
A0
00
ENDCHAR
STARTCHAR char83
ENCODING 83
SWIDTH 400 0
DWIDTH 4 0
BBX 4 8 0 -2
BITMAP
00
00
60
00
C0
20
C0
00
ENDCHAR
STARTCHAR char84
ENCODING 84
SWIDTH 400 0
DWIDTH 4 0
BBX 4 8 0 -2
BITMAP
00
00
A0
00
00
00
40
00
ENDCHAR
STARTCHAR char85
ENCODING 85
SWIDTH 400 0
DWIDTH 4 0
BBX 4 8 0 -2
BITMAP
00
00
00
00
00
00
E0
00
ENDCHAR
STARTCHAR char86
ENCODING 86
SWIDTH 400 0
DWIDTH 4 0
BBX 4 8 0 -2
BITMAP
00
00
00
00
00
A0
40
00
ENDCHAR
STARTCHAR char87
ENCODING 87
SWIDTH 400 0
DWIDTH 4 0
BBX 4 8 0 -2
BITMAP
00
00
00
00
00
00
E0
00
ENDCHAR
STARTCHAR char88
ENCODING 88
SWIDTH 400 0
DWIDTH 4 0
BBX 4 8 0 -2
BITMAP
00
00
00
A0
40
00
A0
00
ENDCHAR
STARTCHAR char89
ENCODING 89
SWIDTH 400 0
DWIDTH 4 0
BBX 4 8 0 -2
BITMAP
00
00
00
80
40
20
C0
00
ENDCHAR
STARTCHAR char90
ENCODING 90
SWIDTH 400 0
DWIDTH 4 0
BBX 4 8 0 -2
BITMAP
00
00
C0
20
40
00
E0
00
ENDCHAR
STARTCHAR char91
ENCODING 91
SWIDTH 400 0
DWIDTH 4 0
BBX 4 8 0 -2
BITMAP
00
00
40
00
00
00
C0
00
ENDCHAR
STARTCHAR char92
ENCODING 92
SWIDTH 400 0
DWIDTH 4 0
BBX 4 8 0 -2
BITMAP
00
00
80
00
40
00
20
00
ENDCHAR
STARTCHAR char93
ENCODING 93
SWIDTH 400 0
DWIDTH 4 0
BBX 4 8 0 -2
BITMAP
00
00
40
00
00
00
60
00
ENDCHAR
STARTCHAR char94
ENCODING 94
SWIDTH 400 0
DWIDTH 4 0
BBX 4 8 0 -2
BITMAP
00
00
40
A0
00
00
00
00
ENDCHAR
STARTCHAR char95
ENCODING 95
SWIDTH 400 0
DWIDTH 4 0
BBX 4 8 0 -2
BITMAP
00
00
00
00
00
00
E0
00
ENDCHAR
STARTCHAR char96
ENCODING 96
SWIDTH 400 0
DWIDTH 4 0
BBX 4 8 0 -2
BITMAP
00
00
40
20
00
00
00
00
ENDCHAR
STARTCHAR char97
ENCODING 97
SWIDTH 400 0
DWIDTH 4 0
BBX 4 8 0 -2
BITMAP
00
00
00
40
00
80
60
00
ENDCHAR
STARTCHAR char98
ENCODING 98
SWIDTH 400 0
DWIDTH 4 0
BBX 4 8 0 -2
BITMAP
00
00
00
40
00
20
C0
00
ENDCHAR
STARTCHAR char99
ENCODING 99
SWIDTH 400 0
DWIDTH 4 0
BBX 4 8 0 -2
BITMAP
00
00
00
60
00
80
60
00
ENDCHAR
STARTCHAR char100
ENCODING 100
SWIDTH 400 0
DWIDTH 4 0
BBX 4 8 0 -2
BITMAP
00
00
00
40
00
80
60
00
ENDCHAR
STARTCHAR char101
ENCODING 101
SWIDTH 400 0
DWIDTH 4 0
BBX 4 8 0 -2
BITMAP
00
00
00
40
20
80
60
00
ENDCHAR
STARTCHAR char102
ENCODING 102
SWIDTH 400 0
DWIDTH 4 0
BBX 4 8 0 -2
BITMAP
00
00
20
00
A0
00
40
00
ENDCHAR
STARTCHAR char103
ENCODING 103
SWIDTH 400 0
DWIDTH 4 0
BBX 4 8 0 -2
BITMAP
00
00
00
40
00
C0
20
C0
ENDCHAR
STARTCHAR char104
ENCODING 104
SWIDTH 400 0
DWIDTH 4 0
BBX 4 8 0 -2
BITMAP
00
00
00
00
40
00
A0
00
ENDCHAR
STARTCHAR char105
ENCODING 105
SWIDTH 400 0
DWIDTH 4 0
BBX 4 8 0 -2
BITMAP
00
00
40
00
00
00
40
00
ENDCHAR
STARTCHAR char106
ENCODING 106
SWIDTH 400 0
DWIDTH 4 0
BBX 4 8 0 -2
BITMAP
00
00
20
00
00
00
A0
40
ENDCHAR
STARTCHAR char107
ENCODING 107
SWIDTH 400 0
DWIDTH 4 0
BBX 4 8 0 -2
BITMAP
00
00
00
00
20
40
A0
00
ENDCHAR
STARTCHAR char108
ENCODING 108
SWIDTH 400 0
DWIDTH 4 0
BBX 4 8 0 -2
BITMAP
00
00
80
00
00
00
60
00
ENDCHAR
STARTCHAR char109
ENCODING 109
SWIDTH 400 0
DWIDTH 4 0
BBX 4 8 0 -2
BITMAP
00
00
00
00
00
40
A0
00
ENDCHAR
STARTCHAR char110
ENCODING 110
SWIDTH 400 0
DWIDTH 4 0
BBX 4 8 0 -2
BITMAP
00
00
00
40
00
00
A0
00
ENDCHAR
STARTCHAR char111
ENCODING 111
SWIDTH 400 0
DWIDTH 4 0
BBX 4 8 0 -2
BITMAP
00
00
00
40
00
A0
40
00
ENDCHAR
STARTCHAR char112
ENCODING 112
SWIDTH 400 0
DWIDTH 4 0
BBX 4 8 0 -2
BITMAP
00
00
00
40
20
40
00
80
ENDCHAR
STARTCHAR char113
ENCODING 113
SWIDTH 400 0
DWIDTH 4 0
BBX 4 8 0 -2
BITMAP
00
00
00
40
80
40
00
20
ENDCHAR
STARTCHAR char114
ENCODING 114
SWIDTH 400 0
DWIDTH 4 0
BBX 4 8 0 -2
BITMAP
00
00
00
60
00
00
80
00
ENDCHAR
STARTCHAR char115
ENCODING 115
SWIDTH 400 0
DWIDTH 4 0
BBX 4 8 0 -2
BITMAP
00
00
00
60
80
20
C0
00
ENDCHAR
STARTCHAR char116
ENCODING 116
SWIDTH 400 0
DWIDTH 4 0
BBX 4 8 0 -2
BITMAP
00
00
00
00
A0
00
60
00
ENDCHAR
STARTCHAR char117
ENCODING 117
SWIDTH 400 0
DWIDTH 4 0
BBX 4 8 0 -2
BITMAP
00
00
00
00
00
80
60
00
ENDCHAR
STARTCHAR char118
ENCODING 118
SWIDTH 400 0
DWIDTH 4 0
BBX 4 8 0 -2
BITMAP
00
00
00
00
00
A0
40
00
ENDCHAR
STARTCHAR char119
ENCODING 119
SWIDTH 400 0
DWIDTH 4 0
BBX 4 8 0 -2
BITMAP
00
00
00
00
00
00
E0
00
ENDCHAR
STARTCHAR char120
ENCODING 120
SWIDTH 400 0
DWIDTH 4 0
BBX 4 8 0 -2
BITMAP
00
00
00
A0
00
40
A0
00
ENDCHAR
STARTCHAR char121
ENCODING 121
SWIDTH 400 0
DWIDTH 4 0
BBX 4 8 0 -2
BITMAP
00
00
00
00
C0
20
C0
00
ENDCHAR
STARTCHAR char122
ENCODING 122
SWIDTH 400 0
DWIDTH 4 0
BBX 4 8 0 -2
BITMAP
00
00
00
A0
40
00
E0
00
ENDCHAR
STARTCHAR char123
ENCODING 123
SWIDTH 400 0
DWIDTH 4 0
BBX 4 8 0 -2
BITMAP
00
00
20
00
80
00
60
00
ENDCHAR
STARTCHAR char124
ENCODING 124
SWIDTH 400 0
DWIDTH 4 0
BBX 4 8 0 -2
BITMAP
00
00
00
00
00
00
40
00
ENDCHAR
STARTCHAR char125
ENCODING 125
SWIDTH 400 0
DWIDTH 4 0
BBX 4 8 0 -2
BITMAP
00
00
80
00
20
00
C0
00
ENDCHAR
STARTCHAR char126
ENCODING 126
SWIDTH 400 0
DWIDTH 4 0
BBX 4 8 0 -2
BITMAP
00
00
00
00
60
80
00
00
ENDCHAR
STARTCHAR char127
ENCODING 127
SWIDTH 400 0
DWIDTH 4 0
BBX 4 8 0 -2
BITMAP
00
00
00
00
00
00
A0
00
ENDCHAR
ENDFONT
